<?xml version="1.0" encoding="UTF-8"?>
<!DOCTYPE svg PUBLIC "-//W3C//DTD SVG 1.1//EN" "http://www.w3.org/Graphics/SVG/1.1/DTD/svg11.dtd">
<!-- Creator: CorelDRAW -->
<svg xmlns="http://www.w3.org/2000/svg" xml:space="preserve" width="26mm" height="17mm" version="1.1" style="shape-rendering:geometricPrecision; text-rendering:geometricPrecision; image-rendering:optimizeQuality; fill-rule:evenodd; clip-rule:evenodd"
viewBox="0 0 2600 1700"
 xmlns:xlink="http://www.w3.org/1999/xlink"
 xmlns:xodm="http://www.corel.com/coreldraw/odm/2003">
 <defs>
  <style type="text/css">
   <![CDATA[
    .fil0 {fill:#FEFEFE}
   ]]>
  </style>
 </defs>
 <g id="Camada_x0020_1">
  <metadata id="CorelCorpID_0Corel-Layer"/>
  <g id="_1292257605104">
   <path class="fil0" d="M1569.9 733.9c-32.76,-176.82 173.2,-222.65 203.04,-64.38 32.46,172.13 -173.96,221.4 -203.04,64.38zm179.58 -514.91c-92.45,-15.08 -146.13,-53.92 -260.06,-31.74 -177.48,34.58 -169.75,485.13 -17.01,667.48 61.64,73.59 88.44,67.98 180.33,115.77 146.03,75.96 242.01,217.68 186.89,387.14 -33.2,102.09 -94.36,151.27 -114.07,188.8 58.7,-8.19 118.69,-29.62 164.98,-55.34 93.75,-52.07 173.93,-130.27 220.45,-231.69 32.93,-71.77 28.11,-118.74 49.18,-180.49 24.42,36.03 133.68,337.99 284.08,-69.33 40.62,-110.02 125.43,-416.22 77.7,-538.61 -34.41,-88.25 -241.67,-235.59 -341.67,-291.28 -54.92,-30.59 -158.88,-89.48 -232.58,-83.9 -81.43,6.16 -155.37,87.93 -198.22,123.19z"/>
   <path class="fil0" d="M859.19 222.02c-73.34,-77.72 -157.19,-163.7 -313.06,-100.41 -117.3,47.63 -210.9,113.66 -296.67,179.89 -141.76,109.44 -180.31,154.09 -171.46,309.21 9.39,164.32 144.98,767.5 312.97,571.7 118.69,-138.33 68.18,-467.82 219.81,-733.22 71.78,-125.64 117.13,-154.43 248.41,-227.17z"/>
   <path class="fil0" d="M1472.71 1136.38c63.11,-152.34 -369.16,-173.65 -338.08,-10.7 8.61,45.18 104.08,130.67 163.68,134.11 67.57,3.91 154,-74.19 174.4,-123.41z"/>
   <path class="fil0" d="M915.12 576.82c-144.95,49.61 -79,294.93 54.48,248.44 128.63,-44.79 75.76,-293.03 -54.48,-248.44z"/>
  </g>
 </g>
</svg>
